<svg xmlns="http://www.w3.org/2000/svg" width="64" height="8"><path d="M0.000 1.013 L 0.000 2.027 14.987 2.027 L 29.973 2.027 29.973 1.013 L 29.973 0.000 14.987 0.000 L 0.000 0.000 0.000 1.013 M34.027 1.013 L 34.027 2.027 49.013 2.027 L 64.000 2.027 64.000 1.013 L 64.000 0.000 49.013 0.000 L 34.027 0.000 34.027 1.013 M15.040 6.987 L 15.040 8.000 22.507 8.000 L 29.973 8.000 29.973 6.987 L 29.973 5.973 22.507 5.973 L 15.040 5.973 15.040 6.987 M34.027 6.986 L 34.027 8.000 41.551 8.000 L 49.075 8.000 49.044 7.013 L 49.013 6.027 41.520 5.999 L 34.027 5.972 34.027 6.986 " fill="#fd6b1c" stroke="none" fill-rule="evenodd"></path></svg>