<svg xmlns="http://www.w3.org/2000/svg" width="32" height="37"><path d="M9.452 1.080 L 9.467 2.160 10.494 2.174 L 11.522 2.189 11.508 3.554 L 11.493 4.919 10.773 5.171 C 9.943 5.461,9.546 5.626,8.892 5.954 C 6.628 7.091,4.610 8.831,3.072 10.974 C 0.530 14.514,-0.503 19.096,0.244 23.520 C 0.712 26.291,1.873 28.908,3.604 31.093 C 4.191 31.834,5.705 33.304,6.462 33.869 C 8.717 35.552,11.084 36.527,13.774 36.882 C 14.685 37.002,16.952 36.988,17.840 36.857 C 21.244 36.355,24.194 34.861,26.641 32.401 C 29.337 29.690,30.964 26.204,31.359 22.293 C 31.434 21.556,31.433 19.796,31.358 19.033 C 31.116 16.575,30.298 14.068,29.088 12.075 C 28.959 11.862,28.853 11.672,28.853 11.654 C 28.853 11.635,29.560 10.885,30.425 9.986 L 31.996 8.353 31.558 7.896 C 29.129 5.361,27.601 3.787,27.569 3.787 C 27.548 3.787,26.828 4.519,25.969 5.413 C 25.110 6.308,24.401 7.040,24.394 7.040 C 24.386 7.040,24.156 6.895,23.883 6.718 C 22.958 6.118,21.555 5.453,20.455 5.093 L 19.920 4.918 19.906 3.552 L 19.892 2.187 20.932 2.187 L 21.973 2.187 21.973 1.093 L 21.973 0.000 15.706 -0.000 L 9.438 -0.000 9.452 1.080 M17.813 3.340 L 17.813 4.494 17.587 4.457 C 16.784 4.328,14.526 4.330,13.827 4.460 L 13.653 4.492 13.653 3.339 L 13.653 2.187 15.733 2.187 L 17.813 2.187 17.813 3.340 M16.829 6.560 C 20.898 6.920,24.547 9.100,26.875 12.563 C 28.108 14.396,28.851 16.339,29.209 18.667 C 29.328 19.441,29.344 21.731,29.234 22.507 C 28.849 25.245,27.852 27.617,26.206 29.707 C 25.669 30.389,24.427 31.597,23.707 32.137 C 20.243 34.735,15.863 35.507,11.813 34.233 C 9.684 33.564,7.915 32.492,6.322 30.907 C 4.044 28.641,2.655 25.805,2.207 22.507 C 2.018 21.117,2.102 19.086,2.407 17.653 C 3.885 10.720,10.071 5.961,16.829 6.560 M28.307 7.579 C 28.696 7.978,29.013 8.321,29.013 8.343 C 29.013 8.364,28.685 8.726,28.283 9.147 L 27.552 9.913 27.234 9.556 C 27.059 9.360,26.725 9.015,26.492 8.789 L 26.067 8.377 26.807 7.604 C 27.214 7.178,27.559 6.836,27.574 6.842 C 27.589 6.848,27.919 7.180,28.307 7.579 M14.213 8.780 C 11.850 9.110,9.647 10.187,7.902 11.865 C 5.916 13.776,4.714 16.141,4.285 18.987 C 4.173 19.729,4.158 21.433,4.257 22.187 C 4.730 25.766,6.643 28.868,9.585 30.824 C 12.276 32.614,15.810 33.140,18.880 32.210 C 22.512 31.108,25.370 28.299,26.607 24.613 C 27.053 23.288,27.253 22.066,27.253 20.682 C 27.253 18.237,26.560 15.899,25.248 13.920 C 23.431 11.181,20.738 9.400,17.547 8.827 C 16.823 8.697,14.990 8.671,14.213 8.780 M16.366 10.881 C 17.663 10.980,18.666 11.259,19.820 11.840 C 21.739 12.807,23.162 14.257,24.137 16.240 C 25.303 18.611,25.488 21.341,24.653 23.867 C 24.400 24.631,23.774 25.869,23.320 26.503 C 22.873 27.127,21.981 28.065,21.412 28.509 C 18.575 30.725,14.824 31.121,11.658 29.538 C 9.088 28.254,7.245 25.915,6.558 23.067 C 6.350 22.205,6.293 21.686,6.293 20.648 C 6.293 18.941,6.606 17.609,7.360 16.107 C 8.853 13.131,11.793 11.118,14.987 10.883 C 15.295 10.861,15.571 10.839,15.600 10.835 C 15.629 10.830,15.974 10.851,16.366 10.881 M14.667 17.387 L 14.667 21.760 17.840 21.760 L 21.013 21.760 21.013 20.667 L 21.013 19.573 18.880 19.573 L 16.747 19.573 16.747 16.293 L 16.747 13.013 15.707 13.013 L 14.667 13.013 14.667 17.387 " fill="#fff" stroke="none" fill-rule="evenodd"></path></svg>