<svg xmlns="http://www.w3.org/2000/svg" width="35" height="35"><path d="M5.936 5.523 L 5.921 11.047 2.975 13.215 L 0.029 15.383 0.014 25.191 L -0.000 35.000 17.500 35.000 L 35.000 35.000 34.986 25.192 L 34.971 15.383 32.025 13.215 L 29.079 11.048 29.064 5.524 L 29.049 0.000 17.500 0.000 L 5.951 0.000 5.936 5.523 M27.008 10.545 L 27.008 19.048 24.113 20.851 C 22.520 21.842,21.188 22.653,21.151 22.653 C 21.115 22.653,20.298 22.039,19.336 21.290 C 18.374 20.540,17.548 19.926,17.500 19.926 C 17.452 19.926,16.626 20.540,15.664 21.290 C 14.702 22.039,13.885 22.653,13.848 22.653 C 13.811 22.653,12.478 21.842,10.886 20.852 L 7.992 19.050 7.992 10.546 L 7.992 2.042 17.500 2.042 L 27.008 2.042 27.008 10.545 M16.490 4.121 C 16.468 4.143,16.450 4.470,16.450 4.847 L 16.450 5.532 16.260 5.573 C 16.156 5.595,15.840 5.719,15.557 5.850 L 15.043 6.087 14.550 5.596 L 14.057 5.106 13.344 5.819 L 12.631 6.532 13.121 7.025 L 13.612 7.518 13.375 8.032 C 13.244 8.315,13.120 8.631,13.098 8.735 L 13.057 8.925 12.332 8.925 L 11.606 8.925 11.622 9.960 L 11.638 10.996 12.343 11.012 L 13.049 11.028 13.120 11.275 C 13.160 11.410,13.286 11.726,13.402 11.976 L 13.613 12.431 13.122 12.924 L 12.631 13.418 13.344 14.131 L 14.057 14.844 14.551 14.353 L 15.044 13.862 15.499 14.073 C 15.749 14.189,16.065 14.315,16.200 14.355 L 16.447 14.426 16.463 15.132 L 16.479 15.838 17.500 15.838 L 18.521 15.838 18.537 15.132 L 18.553 14.426 18.800 14.355 C 18.935 14.315,19.251 14.189,19.501 14.073 L 19.956 13.862 20.449 14.353 L 20.943 14.844 21.656 14.131 L 22.369 13.418 21.878 12.924 L 21.387 12.431 21.598 11.976 C 21.714 11.726,21.840 11.410,21.880 11.275 L 21.951 11.028 22.657 11.012 L 23.363 10.996 23.378 9.960 L 23.394 8.925 22.673 8.925 L 21.952 8.925 21.880 8.677 C 21.841 8.541,21.714 8.224,21.598 7.974 L 21.387 7.519 21.878 7.026 L 22.369 6.532 21.656 5.819 L 20.943 5.106 20.450 5.596 L 19.957 6.087 19.443 5.850 C 19.160 5.719,18.845 5.595,18.741 5.573 L 18.554 5.533 18.537 4.823 L 18.521 4.112 17.526 4.097 C 16.978 4.088,16.512 4.099,16.490 4.121 M18.276 7.584 C 18.768 7.736,19.284 8.118,19.562 8.536 C 19.904 9.051,19.970 9.283,19.975 9.978 C 19.979 10.574,19.972 10.608,19.764 11.028 C 19.484 11.596,19.104 11.976,18.554 12.240 C 18.184 12.417,18.045 12.452,17.620 12.472 C 16.572 12.521,15.701 11.997,15.240 11.040 C 14.839 10.205,14.930 9.222,15.476 8.480 C 16.108 7.622,17.233 7.262,18.276 7.584 M5.924 17.721 C 5.908 17.736,5.212 17.322,4.376 16.800 L 2.856 15.852 3.776 15.173 C 4.282 14.799,4.971 14.292,5.308 14.044 L 5.921 13.595 5.936 15.644 C 5.945 16.771,5.939 17.705,5.924 17.721 M30.771 14.837 C 31.509 15.380,32.120 15.830,32.129 15.838 C 32.151 15.856,29.141 17.733,29.089 17.733 C 29.068 17.733,29.050 16.800,29.050 15.659 L 29.050 13.584 29.240 13.717 C 29.344 13.791,30.033 14.295,30.771 14.837 M7.106 20.913 C 9.839 22.613,12.075 24.022,12.075 24.044 C 12.075 24.078,2.313 31.692,2.115 31.813 C 2.056 31.848,2.042 30.434,2.042 24.819 C 2.042 20.949,2.063 17.791,2.090 17.801 C 2.116 17.812,4.374 19.212,7.106 20.913 M32.958 24.824 C 32.958 30.435,32.944 31.848,32.885 31.813 C 32.687 31.692,22.925 24.078,22.925 24.044 C 22.926 24.004,32.833 17.809,32.915 17.798 C 32.939 17.794,32.958 20.956,32.958 24.824 M24.251 27.708 L 30.965 32.929 24.233 32.944 C 20.530 32.952,14.470 32.952,10.767 32.944 L 4.034 32.929 10.753 27.699 C 14.448 24.823,17.486 22.474,17.504 22.479 C 17.522 22.484,20.558 24.837,24.251 27.708 " fill="#fff" stroke="none" fill-rule="evenodd"></path></svg>