<svg xmlns="http://www.w3.org/2000/svg" width="48" height="48"><path d="M6.360 0.088 C 4.751 0.322,2.956 1.303,1.878 2.537 C 0.971 3.574,0.285 5.034,0.081 6.365 C 0.022 6.746,0.003 10.959,0.018 19.800 L 0.042 32.680 0.216 33.240 C 0.632 34.577,1.224 35.562,2.191 36.529 C 3.577 37.915,5.284 38.737,7.240 38.957 C 7.700 39.009,13.025 39.039,22.001 39.039 L 36.041 39.040 40.281 42.890 C 45.853 47.950,45.697 47.815,46.067 47.926 C 46.586 48.081,47.077 47.963,47.487 47.585 C 47.697 47.392,47.870 47.145,47.918 46.971 C 47.972 46.779,47.999 39.925,48.000 26.749 C 48.000 9.251,47.985 6.739,47.878 6.177 C 47.328 3.278,45.257 1.048,42.343 0.217 L 41.720 0.040 24.280 0.029 C 14.681 0.023,6.624 0.050,6.360 0.088 M41.624 3.159 C 43.153 3.557,44.441 4.842,44.838 6.364 C 44.946 6.779,44.960 8.943,44.960 24.836 L 44.960 42.837 41.660 39.546 C 39.012 36.904,38.297 36.233,38.040 36.148 C 37.781 36.063,34.783 36.035,22.400 36.001 L 7.080 35.960 6.441 35.734 C 4.873 35.180,3.712 34.094,3.230 32.729 L 3.043 32.200 3.042 19.517 C 3.040 8.538,3.056 6.772,3.159 6.376 C 3.553 4.865,4.833 3.569,6.330 3.166 C 6.989 2.989,40.944 2.982,41.624 3.159 M12.955 16.557 C 11.423 16.831,10.283 18.401,10.538 19.887 C 10.717 20.931,11.332 21.778,12.237 22.222 C 12.630 22.415,12.771 22.440,13.480 22.440 C 14.179 22.440,14.337 22.413,14.734 22.227 C 15.779 21.737,16.404 20.807,16.463 19.652 C 16.490 19.135,16.463 18.903,16.332 18.532 C 15.845 17.152,14.390 16.301,12.955 16.557 M23.360 16.591 C 21.751 16.949,20.744 18.493,21.077 20.092 C 21.277 21.050,21.878 21.802,22.786 22.227 C 23.178 22.411,23.344 22.440,24.000 22.440 C 24.656 22.440,24.822 22.411,25.214 22.227 C 26.122 21.802,26.723 21.050,26.923 20.092 C 27.265 18.451,26.192 16.876,24.522 16.567 C 23.964 16.464,23.929 16.465,23.360 16.591 M33.924 16.565 C 33.042 16.744,32.182 17.414,31.778 18.237 C 31.585 18.630,31.560 18.771,31.560 19.482 C 31.560 20.224,31.579 20.322,31.820 20.811 C 32.128 21.438,32.630 21.929,33.266 22.227 C 33.663 22.413,33.821 22.440,34.520 22.440 C 35.229 22.440,35.370 22.415,35.763 22.222 C 36.668 21.778,37.283 20.931,37.462 19.887 C 37.617 18.984,37.218 17.904,36.497 17.270 C 35.844 16.697,34.748 16.397,33.924 16.565 " fill="#fff" stroke="none" fill-rule="evenodd"></path></svg>