<svg xmlns="http://www.w3.org/2000/svg" width="35" height="35"><path d="M15.987 0.066 C 13.013 0.310,10.076 1.363,7.583 3.078 C 6.990 3.486,6.094 4.209,5.494 4.764 L 5.126 5.104 5.855 5.829 L 6.584 6.554 6.968 6.194 C 8.584 4.683,10.875 3.348,12.885 2.746 C 14.543 2.250,15.719 2.080,17.500 2.080 C 18.942 2.080,19.871 2.178,21.031 2.454 C 23.929 3.142,26.601 4.671,28.646 6.814 C 30.967 9.243,32.358 12.159,32.823 15.567 C 32.936 16.400,32.951 18.463,32.850 19.250 C 32.413 22.625,31.126 25.445,28.885 27.932 L 28.447 28.418 29.172 29.140 L 29.896 29.862 30.462 29.237 C 32.830 26.627,34.280 23.546,34.832 19.950 C 35.007 18.811,35.025 16.346,34.866 15.225 C 34.103 9.841,31.096 5.266,26.491 2.483 C 23.402 0.616,19.692 -0.238,15.987 0.066 M13.825 10.412 L 13.825 11.433 15.867 11.433 L 17.908 11.433 17.908 12.454 L 17.908 13.475 15.867 13.475 L 13.825 13.475 13.825 16.538 L 13.825 19.600 16.917 19.600 L 20.008 19.600 20.008 18.579 L 20.008 17.558 17.938 17.558 L 15.867 17.558 15.867 16.538 L 15.867 15.517 17.938 15.517 L 20.008 15.517 20.008 12.454 L 20.008 9.392 16.917 9.392 L 13.825 9.392 13.825 10.412 M22.050 12.454 L 22.050 15.517 24.091 15.517 L 26.132 15.517 26.147 17.573 L 26.163 19.629 27.183 19.629 L 28.204 19.629 28.219 14.510 L 28.234 9.392 27.184 9.392 L 26.133 9.392 26.133 11.433 L 26.133 13.475 25.113 13.475 L 24.092 13.475 24.092 11.433 L 24.092 9.392 23.071 9.392 L 22.050 9.392 22.050 12.454 M0.001 13.081 C 0.003 16.893,0.093 17.950,0.585 19.899 C 1.553 23.731,3.435 26.906,6.386 29.685 C 8.857 32.011,11.980 33.675,15.371 34.472 C 17.247 34.914,17.729 34.953,21.569 34.983 L 24.967 35.010 24.967 29.959 L 24.967 24.908 20.813 24.923 L 16.659 24.938 16.300 26.237 C 16.103 26.952,15.925 27.553,15.906 27.572 C 15.844 27.634,14.994 27.307,14.146 26.894 C 11.565 25.639,9.504 23.610,8.196 21.035 C 7.783 20.222,7.385 19.231,7.425 19.114 C 7.436 19.081,8.034 18.891,8.754 18.694 L 10.063 18.334 10.077 14.184 L 10.092 10.033 5.046 10.033 L 0.000 10.033 0.001 13.081 M8.036 14.421 L 8.021 16.767 6.478 17.194 C 5.629 17.428,4.924 17.632,4.910 17.646 C 4.896 17.660,4.970 18.020,5.074 18.446 C 5.812 21.465,7.157 23.857,9.283 25.933 C 10.114 26.744,10.690 27.214,11.541 27.776 C 12.682 28.530,13.810 29.077,15.108 29.505 C 15.753 29.718,17.170 30.100,17.313 30.100 C 17.342 30.100,17.560 29.391,17.797 28.525 L 18.229 26.951 20.548 26.950 L 22.867 26.950 22.867 29.954 L 22.867 32.958 21.073 32.957 C 18.680 32.956,17.553 32.857,15.983 32.511 C 15.100 32.317,13.439 31.766,12.600 31.390 C 7.395 29.056,3.550 24.256,2.422 18.683 C 2.156 17.371,2.093 16.612,2.059 14.277 L 2.026 12.075 5.038 12.075 L 8.051 12.075 8.036 14.421 " fill="#fff" stroke="none" fill-rule="evenodd"></path></svg>