<svg xmlns="http://www.w3.org/2000/svg" width="51" height="51"><path d="M25.755 0.057 C 24.843 0.171,22.809 0.642,21.827 0.966 C 16.631 2.681,12.147 6.472,9.498 11.390 C 8.402 13.427,7.498 16.201,7.145 18.615 C 7.094 18.966,7.019 19.763,6.979 20.386 L 6.906 21.519 6.577 21.785 C 5.965 22.278,4.746 23.499,4.227 24.140 C 2.637 26.104,1.514 28.496,0.956 31.108 C 0.745 32.091,0.728 32.328,0.725 34.213 C 0.723 35.996,0.746 36.370,0.913 37.191 C 1.149 38.353,1.425 39.285,1.837 40.309 L 2.154 41.098 1.073 44.328 C 0.085 47.280,-0.007 47.609,-0.004 48.160 C 0.001 48.910,0.322 49.615,0.901 50.149 C 1.464 50.667,1.952 50.860,2.720 50.867 C 3.325 50.872,3.516 50.817,6.470 49.781 L 9.583 48.689 10.550 49.074 C 15.695 51.118,21.332 50.368,25.713 47.057 C 26.611 46.378,27.836 45.188,28.485 44.365 L 29.007 43.701 29.570 43.650 C 32.621 43.375,34.927 42.819,37.114 41.831 C 37.541 41.638,37.917 41.480,37.950 41.480 C 37.983 41.480,39.986 42.176,42.401 43.027 L 46.793 44.573 47.643 44.578 C 48.392 44.582,48.550 44.556,48.979 44.355 C 50.227 43.769,51.116 42.279,50.970 41.015 C 50.943 40.780,50.225 38.522,49.374 35.998 L 47.828 31.408 48.147 30.685 C 48.970 28.820,49.687 26.100,49.891 24.067 C 50.019 22.803,50.001 20.447,49.854 19.193 C 49.378 15.124,47.743 11.216,45.167 7.990 C 44.386 7.012,42.721 5.356,41.727 4.569 C 38.964 2.382,35.855 0.954,32.398 0.283 C 31.319 0.073,31.056 0.056,28.645 0.038 C 27.219 0.028,25.919 0.036,25.755 0.057 M29.835 3.063 C 36.208 3.547,41.943 7.404,44.873 13.175 C 46.315 16.015,46.930 18.597,46.928 21.798 C 46.926 24.718,46.378 27.231,45.176 29.835 C 44.928 30.373,44.701 30.946,44.671 31.110 C 44.626 31.356,44.907 32.268,46.280 36.335 C 47.195 39.045,47.925 41.312,47.901 41.373 C 47.878 41.434,47.805 41.504,47.740 41.529 C 47.675 41.554,45.522 40.841,42.957 39.943 C 40.392 39.045,38.118 38.293,37.905 38.271 C 37.578 38.238,37.413 38.284,36.843 38.570 C 35.082 39.453,32.862 40.145,30.893 40.423 C 29.557 40.612,27.226 40.611,25.980 40.421 C 17.598 39.143,11.220 32.583,10.108 24.098 C 9.956 22.938,9.978 20.373,10.151 19.168 C 10.742 15.034,12.574 11.334,15.460 8.443 C 18.905 4.993,23.309 3.110,28.220 2.987 C 28.477 2.981,29.204 3.015,29.835 3.063 M18.926 13.724 C 17.705 14.159,17.576 15.840,18.713 16.491 L 19.083 16.703 28.475 16.703 L 37.867 16.703 38.209 16.507 C 39.388 15.831,39.211 14.045,37.929 13.689 C 37.720 13.631,34.496 13.602,28.433 13.604 C 20.879 13.607,19.195 13.628,18.926 13.724 M18.828 20.095 C 18.510 20.237,18.145 20.621,18.025 20.937 C 17.901 21.266,17.912 21.796,18.050 22.125 C 18.202 22.491,18.714 22.930,19.059 22.992 C 19.212 23.019,23.551 23.030,28.701 23.017 L 38.064 22.993 38.391 22.731 C 38.807 22.399,39.015 21.990,39.015 21.505 C 39.015 21.020,38.807 20.611,38.391 20.279 L 38.064 20.018 28.573 19.999 C 20.773 19.984,19.037 20.001,18.828 20.095 M7.399 26.352 C 9.104 34.618,15.612 41.293,23.758 43.133 C 24.319 43.260,24.873 43.383,24.990 43.407 C 25.192 43.450,25.176 43.476,24.650 43.962 C 23.593 44.939,21.999 45.887,20.570 46.389 C 17.320 47.531,13.920 47.331,10.783 45.814 C 10.353 45.606,9.960 45.475,9.767 45.475 C 9.499 45.475,7.932 45.993,3.852 47.431 L 3.157 47.676 4.262 44.388 C 5.163 41.704,5.356 41.044,5.312 40.801 C 5.282 40.637,5.093 40.139,4.891 39.695 C 4.211 38.199,3.857 36.811,3.749 35.211 C 3.551 32.273,4.243 29.578,5.818 27.158 C 6.264 26.472,7.131 25.378,7.186 25.432 C 7.202 25.448,7.298 25.862,7.399 26.352 M18.659 26.544 C 18.153 26.831,17.921 27.289,17.956 27.934 C 17.978 28.345,18.034 28.519,18.219 28.762 C 18.706 29.401,18.322 29.365,24.802 29.391 C 28.593 29.406,30.720 29.384,30.933 29.327 C 32.197 28.987,32.445 27.185,31.316 26.543 L 30.983 26.353 24.990 26.353 L 18.998 26.353 18.659 26.544 " fill="#c6e1f1" stroke="none" fill-rule="evenodd"></path></svg>